<svg width="187" height="187" viewBox="0 0 187 187" fill="none" xmlns="http://www.w3.org/2000/svg">
<g clip-path="url(#clip0_105_2)">
<path d="M136.977 85.2542L144.769 74.5796C145.478 73.6327 146.395 72.8599 147.448 72.3199C148.501 71.7799 149.663 71.4868 150.846 71.463H163.936C165.263 71.3537 166.54 70.9061 167.645 70.1631C168.749 69.4201 169.645 68.4064 170.247 67.2187C170.849 66.031 171.136 64.7089 171.081 63.3786C171.027 62.0483 170.632 60.7541 169.936 59.6196L162.144 49.1009C161.456 48.1293 161.001 47.0132 160.812 45.8381C160.622 44.6631 160.705 43.4603 161.053 42.3221L165.027 30.1671C165.342 28.8732 165.32 27.5201 164.963 26.2371C164.606 24.9541 163.926 23.784 162.988 22.8384C162.051 21.8928 160.886 21.2034 159.606 20.8359C158.326 20.4684 156.973 20.4351 155.677 20.7392L143.21 25.0246C142.083 25.3602 140.895 25.4363 139.735 25.2474C138.574 25.0585 137.472 24.6094 136.509 23.9338L125.991 16.1421C124.84 15.4388 123.526 15.0463 122.177 15.0031C120.829 14.9599 119.493 15.2675 118.299 15.8958C117.105 16.524 116.095 17.4515 115.367 18.5873C114.64 19.7231 114.219 21.0284 114.147 22.3755V35.5434C114.123 36.7266 113.83 37.8888 113.29 38.9418C112.75 39.9949 111.978 40.9111 111.031 41.6209L100.278 49.4125C99.273 50.2812 98.5066 51.3924 98.0519 52.6406C97.5971 53.8888 97.469 55.2325 97.6798 56.5442C97.8906 57.8558 98.4333 59.0918 99.2563 60.1346C100.079 61.1775 101.155 61.9926 102.382 62.5025L114.849 66.3984C115.99 66.7815 117.028 67.4241 117.88 68.2759C118.731 69.1276 119.374 70.1652 119.757 71.3071L123.653 83.7738C124.208 84.995 125.069 86.0523 126.152 86.8433C127.235 87.6343 128.504 88.1323 129.836 88.289C131.169 88.4457 132.519 88.2559 133.756 87.7379C134.993 87.2198 136.076 86.3912 136.899 85.3321L136.977 85.2542ZM54.541 101.071C52.1945 101.035 49.8639 101.464 47.684 102.333C45.5041 103.202 43.5181 104.495 41.8406 106.136L23.3743 124.602C18.3321 129.624 15.4912 136.443 15.4766 143.559C15.462 150.675 18.2749 157.505 23.2964 162.548C28.318 167.59 35.1368 170.431 42.253 170.445C49.3691 170.46 56.1996 167.647 61.2418 162.625L79.7081 144.237C87.9673 135.978 85.9414 121.953 74.9552 110.967C69.666 105.147 62.3126 101.624 54.4631 101.149L54.541 101.071ZM70.0464 134.264C67.5531 136.757 61.4756 134.653 56.411 129.589C51.3464 124.524 49.2427 118.447 51.736 115.953C54.2293 113.46 60.3068 115.953 65.3714 120.628C70.436 125.303 72.3839 131.77 70.0464 134.264ZM108.927 111.98C107.329 111.899 105.731 112.149 104.234 112.716C102.737 113.282 101.374 114.151 100.229 115.269C99.0843 116.387 98.183 117.73 97.5819 119.213C96.9807 120.696 96.6926 122.287 96.7357 123.887C96.7788 125.487 97.1521 127.06 97.8323 128.509C98.5124 129.957 99.4846 131.249 100.688 132.304C101.891 133.359 103.3 134.154 104.825 134.639C106.35 135.123 107.959 135.288 109.55 135.121C112.458 134.816 115.144 133.426 117.071 131.228C118.998 129.029 120.025 126.184 119.946 123.262C119.868 120.339 118.689 117.554 116.646 115.462C114.604 113.371 111.847 112.127 108.927 111.98ZM63.891 52.2955C65.3869 40.7838 63.2341 29.0929 57.7356 18.8692C57.2751 17.9534 56.6388 17.1373 55.863 16.4675C55.0871 15.7976 54.1869 15.2871 53.2138 14.9651C51.2484 14.3149 49.1053 14.472 47.2558 15.4019C45.4063 16.3318 44.002 17.9584 43.3517 19.9237C42.7015 21.8891 42.8586 24.0322 43.7885 25.8817C45.7364 29.6996 47.1389 33.7513 47.996 37.9588C45.4314 37.377 42.769 37.377 40.2043 37.9588C37.118 38.6072 34.2468 40.0289 31.8602 42.0905C29.4735 44.152 27.6495 46.786 26.5593 49.7453C25.469 52.7046 25.1481 55.8923 25.6268 59.0095C26.1055 62.1267 27.368 65.0713 29.296 67.5671C32.1716 71.1748 36.2935 73.5754 40.8503 74.2964C45.4071 75.0174 50.0687 74.0066 53.9177 71.463C54.6968 75.5926 54.8527 79.8 54.4631 84.0075C54.2254 86.074 54.8184 88.1503 56.1116 89.7795C57.4048 91.4088 59.2922 92.4576 61.3587 92.6953C63.4252 92.9329 65.5014 92.3399 67.1307 91.0467C68.76 89.7535 69.8088 87.8661 70.0464 85.7996C71.5431 74.2628 69.3907 62.5469 63.891 52.2955ZM43.7106 58.8405C43.3356 58.8406 42.9643 58.7656 42.6188 58.6197C42.2733 58.4739 41.9606 58.2603 41.6991 57.9915C41.4376 57.7228 41.2326 57.4043 41.0963 57.0549C40.96 56.7056 40.8952 56.3324 40.9056 55.9575C40.9053 55.2063 41.1983 54.4845 41.7222 53.9461C42.2462 53.4076 42.9596 53.0949 43.7106 53.0746C44.4825 53.0744 45.2241 53.3756 45.7771 53.9141C46.3302 54.4526 46.6511 55.1859 46.6714 55.9575C46.6716 56.3428 46.5945 56.7241 46.4448 57.0791C46.295 57.434 46.0757 57.7554 45.7997 58.0241C45.5237 58.2929 45.1966 58.5036 44.8378 58.6438C44.479 58.784 44.0957 58.8509 43.7106 58.8405Z" fill="white"/>
<path d="M107.297 91.1761C108.995 89.9748 110.434 88.4459 111.532 86.6795C112.629 84.9131 113.362 82.945 113.687 80.8911C113.84 79.8679 113.79 78.8244 113.541 77.8204C113.291 76.8163 112.846 75.8713 112.231 75.0392C111.616 74.2072 110.843 73.5044 109.956 72.971C109.07 72.4377 108.087 72.0842 107.064 71.9307C106.04 71.7772 104.997 71.8268 103.993 72.0765C102.989 72.3263 102.044 72.7714 101.212 73.3864C100.38 74.0014 99.677 74.7742 99.1436 75.6608C98.6102 76.5474 98.2567 77.5304 98.1032 78.5536C97.4376 78.7155 96.743 78.7155 96.0774 78.5536C93.8825 78.0452 91.6036 78.0188 89.3976 78.4761C87.1915 78.9335 85.1109 79.8637 83.299 81.2028C78.911 84.9978 76.1264 90.3165 75.5074 96.0848C75.2594 98.141 75.8384 100.211 77.117 101.841C78.3955 103.47 80.2689 104.525 82.3251 104.773C84.3812 105.021 86.4517 104.442 88.0809 103.163C89.7102 101.884 90.7648 100.011 91.0128 97.9548C91.0128 96.1628 92.1815 94.059 93.3503 93.7473C95.7365 94.3402 98.2216 94.4175 100.64 93.9741C103.058 93.5307 105.355 92.5768 107.375 91.1761H107.297ZM166.047 114.395C165.039 113.257 164.283 111.92 163.826 110.47C163.37 109.02 163.224 107.49 163.397 105.98L163.865 100.76C163.96 99.7113 163.73 98.659 163.207 97.7451C162.685 96.8311 161.894 96.0996 160.943 95.6493C159.991 95.199 158.924 95.0516 157.886 95.227C156.848 95.4024 155.889 95.8922 155.138 96.6303L151.476 100.292C150.36 101.345 149.032 102.148 147.581 102.645C146.129 103.142 144.588 103.323 143.061 103.175L137.841 102.708C136.792 102.613 135.74 102.843 134.826 103.365C133.912 103.888 133.18 104.678 132.73 105.63C132.28 106.581 132.132 107.648 132.308 108.686C132.483 109.724 132.973 110.684 133.711 111.434L137.373 115.33C138.386 116.436 139.153 117.743 139.623 119.167C140.093 120.591 140.256 122.098 140.1 123.589L139.633 128.888C139.538 129.936 139.768 130.989 140.29 131.903C140.813 132.816 141.603 133.548 142.555 133.998C143.506 134.449 144.573 134.596 145.611 134.421C146.649 134.245 147.609 133.755 148.359 133.017L152.177 129.355C153.266 128.305 154.565 127.498 155.989 126.987C157.413 126.477 158.929 126.275 160.437 126.394L165.735 126.862C166.783 126.957 167.836 126.727 168.75 126.205C169.664 125.682 170.395 124.891 170.845 123.94C171.296 122.988 171.443 121.921 171.268 120.883C171.092 119.845 170.602 118.886 169.864 118.135L166.047 114.395Z" fill="white"/>
</g>
<defs>
<clipPath id="clip0_105_2">
<rect width="187" height="187" fill="white"/>
</clipPath>
</defs>
</svg>
