<svg width="78" height="78" viewBox="0 0 78 78" fill="none" xmlns="http://www.w3.org/2000/svg">
<path fill-rule="evenodd" clip-rule="evenodd" d="M45.008 17.6241C41.6014 15.6573 37.4045 15.6573 33.9979 17.624L24.1721 23.2969C20.7656 25.2638 18.6671 28.8986 18.6671 32.832V44.1777C18.6671 48.1115 20.7656 51.746 24.1721 53.7129L33.9979 59.3857C37.4045 61.3526 41.6014 61.3526 45.008 59.3857L54.8337 53.7129C58.2403 51.746 60.3388 48.1115 60.3388 44.1777V32.832C60.3388 28.8986 58.2403 25.2638 54.8337 23.2969L45.008 17.6241ZM71.8214 26.2025C71.8214 22.2691 69.7229 18.6343 66.3163 16.6675L45.008 4.36521C41.6014 2.39845 37.4045 2.39844 33.9979 4.36521L12.6897 16.6675C9.2831 18.6343 7.18457 22.2691 7.18457 26.2025V50.8072C7.18457 54.7407 9.2831 58.3755 12.6897 60.3424L33.9979 72.6445C37.4045 74.6113 41.6014 74.6113 45.008 72.6445L66.3163 60.3424C69.7229 58.3755 71.8214 54.7407 71.8214 50.8072V26.2025Z" fill="#505CDC"/>
<g clip-path="url(#clip0_109_7)">
<path d="M44.3022 33.7015L41.3312 25.7798C40.6963 24.0871 38.302 24.0871 37.6671 25.7798L34.6962 33.7015L26.7744 36.6725C25.0817 37.3074 25.0817 39.7017 26.7744 40.3365L34.6962 43.3075L37.6671 51.2293C38.302 52.9219 40.6963 52.9219 41.3312 51.2293L44.3022 43.3075L52.2239 40.3365C53.9167 39.7017 53.9167 37.3074 52.2239 36.6725L44.3022 33.7015Z" fill="#505CDC"/>
</g>
<defs>
<clipPath id="clip0_109_7">
<rect width="30.1935" height="30.1935" fill="white" transform="translate(25.1611 22.6453)"/>
</clipPath>
</defs>
</svg>
