<svg width="191" height="191" viewBox="0 0 191 191" fill="none" xmlns="http://www.w3.org/2000/svg">
<path d="M80.1394 74.8079C79.8254 73.8526 79.2178 73.0208 78.4032 72.4311C77.5887 71.8414 76.6087 71.5239 75.6031 71.5239C74.5975 71.5239 73.6176 71.8414 72.803 72.4311C71.9885 73.0208 71.3809 73.8526 71.0669 74.8079L70.2711 76.7975C69.4839 78.9614 68.2367 80.9287 66.6154 82.5638C64.9941 84.1988 63.0374 85.4626 60.8802 86.2679L58.8906 87.0638C57.9634 87.3952 57.1613 88.0051 56.5942 88.81C56.0271 89.615 55.7227 90.5756 55.7227 91.5602C55.7227 92.5449 56.0271 93.5055 56.5942 94.3104C57.1613 95.1154 57.9634 95.7253 58.8906 96.0567L60.8802 96.8525C63.0441 97.6396 65.0114 98.8869 66.6465 100.508C68.2815 102.129 69.5453 104.086 70.3506 106.243L71.1465 108.233C71.4779 109.16 72.0878 109.962 72.8927 110.529C73.6977 111.097 74.6583 111.401 75.6429 111.401C76.6276 111.401 77.5882 111.097 78.3931 110.529C79.1981 109.962 79.808 109.16 80.1394 108.233L80.9352 106.243C81.7223 104.079 82.9696 102.112 84.5909 100.477C86.2122 98.8421 88.1689 97.5783 90.3261 96.7729L92.3156 95.9771C93.2429 95.6457 94.045 95.0358 94.6121 94.2308C95.1792 93.4259 95.4836 92.4653 95.4836 91.4806C95.4836 90.496 95.1792 89.5354 94.6121 88.7304C94.045 87.9255 93.2429 87.3156 92.3156 86.9842L90.3261 86.1884C88.1622 85.4012 86.1948 84.154 84.5598 82.5327C82.9248 80.9114 81.661 78.9547 80.8556 76.7975L80.0598 74.8079H80.1394Z" fill="white"/>
<path fill-rule="evenodd" clip-rule="evenodd" d="M111.413 0H79.5796V15.9167H63.6629V31.8333H71.6212V43.8504C68.5375 44.942 65.5328 46.245 62.6283 47.75C47.9917 55.3126 36.4097 67.6898 29.8341 82.7956C23.2586 97.9015 22.0916 114.812 26.5298 130.678C30.9681 146.544 40.7402 160.395 54.1993 169.896C67.6583 179.398 83.9814 183.969 100.418 182.839C116.854 181.71 132.398 174.949 144.431 163.695C156.464 152.442 164.249 137.385 166.475 121.061C168.701 104.737 165.232 88.1446 156.651 74.0803C148.071 60.016 134.905 49.3396 119.371 43.8504V31.8333H127.33V15.9167H111.413V0ZM103.455 31.8333H87.5379V55.1513L76.9533 58.8917C67.0578 62.3821 58.3493 68.5962 51.8304 76.8187C45.3116 85.0412 41.2476 94.9375 40.1062 105.368C42.0958 106.244 43.8467 107.517 45.4383 109.109L55.2271 118.898C57.9023 121.573 61.0785 123.696 64.5742 125.144C68.0699 126.592 71.8166 127.338 75.6004 127.338C79.3842 127.338 83.1309 126.592 86.6266 125.144C90.1223 123.696 93.2985 121.573 95.9737 118.898L99.4754 115.396C107.116 107.754 117.479 103.46 128.285 103.458H150.568C149.12 93.4057 144.952 83.9401 138.513 76.0851C132.075 68.2301 123.612 62.2847 114.039 58.8917L103.455 55.1513V31.8333Z" fill="white"/>
</svg>
