<svg width="153" height="137" viewBox="0 0 153 137" fill="none" xmlns="http://www.w3.org/2000/svg">
<g clip-path="url(#clip0_114_745)">
<path d="M100.636 53.7339C107.678 54.4492 113.965 49.321 114.68 42.2797C115.396 35.2384 110.268 28.9506 103.226 28.2353C96.1852 27.5201 89.8967 32.6483 89.1815 39.6895C88.4662 46.7308 93.595 53.0187 100.636 53.7339Z" fill="#57F287"/>
<path d="M115.492 52.5025C122.534 53.2178 128.821 48.0895 129.537 41.0482C130.252 34.007 125.124 27.7191 118.082 27.0038C111.042 26.2886 104.753 31.4168 104.038 38.458C103.323 45.4993 108.451 51.7873 115.492 52.5025Z" fill="#57F287"/>
<path d="M123.487 62.7184C130.528 63.4336 136.816 58.3052 137.531 51.2639C138.246 44.2227 133.118 37.9348 126.078 37.2196C119.036 36.5043 112.748 41.6326 112.033 48.6739C111.318 55.7151 116.446 62.003 123.487 62.7184Z" fill="#57F287"/>
<path d="M52.6072 29.5325L126.759 37.0648L147.43 80.6203L141.991 90.4319L67.7668 82.8921L47.1689 39.344L52.6072 29.5325Z" fill="#FF78B9"/>
<path d="M75.4684 31.8549L69.167 31.2148C69.2475 31.9474 69.5808 32.629 70.1098 33.1421C70.6387 33.6552 71.33 33.9679 72.0646 34.0262C72.7939 34.1027 73.5276 33.9297 74.146 33.5354C74.7642 33.141 75.2304 32.5486 75.4684 31.8549Z" fill="#FFBADB"/>
<path d="M84.2917 41.1908C83.489 41.106 82.6773 41.1935 81.911 41.4477C81.1448 41.7017 80.4416 42.1165 79.8485 42.6642L88.275 43.5201C87.8176 42.8677 87.2257 42.3218 86.5379 41.9197C85.851 41.5176 85.0844 41.269 84.2917 41.1908Z" fill="#FFBADB"/>
<path d="M59.6716 38.69C58.8688 38.6053 58.0572 38.6928 57.2908 38.9469C56.5246 39.201 55.8214 39.6158 55.2284 40.1634L63.6546 41.0194C63.1979 40.367 62.6054 39.821 61.9179 39.419C61.2305 39.0168 60.4642 38.7682 59.6716 38.69Z" fill="#FFBADB"/>
<path d="M118.404 36.2163C118.485 36.9488 118.818 37.6305 119.347 38.1436C119.876 38.6567 120.568 38.9695 121.302 39.0276C122.032 39.1043 122.765 38.9312 123.383 38.5368C124.002 38.1426 124.469 37.5501 124.706 36.8564L118.404 36.2163Z" fill="#FFBADB"/>
<path d="M100.087 34.3557L93.7852 33.7156C93.8655 34.4481 94.1994 35.1298 94.7282 35.6428C95.2571 36.156 95.949 36.4687 96.6829 36.5269C97.4129 36.6036 98.1461 36.4305 98.7641 36.0361C99.3831 35.6419 99.8494 35.0494 100.087 34.3557Z" fill="#FFBADB"/>
<path d="M108.911 43.6918C108.108 43.6069 107.297 43.6945 106.53 43.9487C105.764 44.2027 105.061 44.6175 104.468 45.1652L112.894 46.0211C112.437 45.3687 111.845 44.8228 111.157 44.4207C110.47 44.0186 109.703 43.7699 108.911 43.6918Z" fill="#FFBADB"/>
<path d="M80.9628 32.4131L94.518 33.7901L89.0796 43.6016L75.5244 42.2246L80.9628 32.4131Z" fill="#57F287"/>
<path d="M47.1689 39.3438L121.32 46.8761L141.991 90.4316L67.7668 82.8918L47.1689 39.3438Z" fill="black"/>
<path d="M126.759 37.065L121.32 46.8765L141.991 90.432L147.43 80.6205L126.759 37.065Z" fill="#EB459F"/>
<path d="M132.97 71.3801L135.957 77.6799L136.024 77.0205C136.154 75.8806 135.932 74.7283 135.385 73.7194C134.839 72.7105 133.996 71.894 132.97 71.3801Z" fill="#FFBADB"/>
<path d="M141.993 90.4306L144.256 86.367C144.034 85.8169 143.668 85.3367 143.197 84.9763C142.726 84.616 142.166 84.3886 141.577 84.3182C140.794 84.2404 140.01 84.4502 139.37 84.9082L141.993 90.4306Z" fill="#FFBADB"/>
<path d="M127.316 51.2609C127.242 51.9984 127.314 52.7434 127.529 53.4527C127.744 54.1621 128.098 54.8215 128.57 55.393C129.043 55.9644 129.623 56.4362 130.28 56.7813C130.936 57.1263 131.654 57.3375 132.393 57.4027C133.674 57.5469 134.965 57.2322 136.036 56.5144L131.215 46.4009C130.162 46.7419 129.231 47.3839 128.538 48.2475C127.845 49.1111 127.42 50.1586 127.316 51.2609Z" fill="#FFBADB"/>
<path d="M136.218 56.9018L141.206 67.5504L135.768 77.3619L130.706 66.7059L136.218 56.9018Z" fill="#29CC7A"/>
<path d="M34.001 45.8945C36.2841 65.3379 45.4166 77.3427 45.4166 77.3427" stroke="#5865F2" stroke-width="19" stroke-miterlimit="10" stroke-linecap="round"/>
<path d="M76.571 46.9991C72.225 50.6816 70.458 50.6816 70.458 50.6816L85.556 51.5653C85.627 50.8522 85.552 50.1322 85.337 49.4486C85.122 48.765 84.77 48.1322 84.304 47.5883C83.837 47.0379 83.266 46.5857 82.624 46.2578C81.981 45.9298 81.28 45.7327 80.56 45.6779C79.841 45.6231 79.118 45.7117 78.433 45.9385C77.748 46.1653 77.115 46.5258 76.571 46.9991Z" fill="#57F287"/>
<path d="M58.6181 49.966L76.001 51C75.9254 51 73.367 50.7046 67.7985 43.9099C66.9107 42.8926 65.6734 42.2307 64.3206 42.05C62.9688 41.8692 61.5956 42.1822 60.4636 42.9294C59.3305 43.6766 58.5168 44.806 58.1766 46.1032C57.8366 47.4004 57.9936 48.775 58.6181 49.966Z" fill="#29CC7A"/>
<path d="M43.713 60.5182L45.9186 60.6493C46.4256 60.6794 46.8998 60.9097 47.237 61.2894C47.5742 61.6692 47.7467 62.1674 47.7166 62.6743L46.8037 78.0399C46.7886 78.2973 46.7217 78.5489 46.607 78.7798C46.4923 79.0106 46.3322 79.216 46.1362 79.3834C45.9402 79.5509 45.7125 79.6771 45.4666 79.7544C45.2206 79.8318 44.9617 79.8587 44.7051 79.8335L42.4995 79.7025C41.2906 79.6306 40.1597 79.0815 39.3557 78.1759C38.5516 77.2703 38.1403 76.0824 38.2121 74.8734L38.8105 64.8013C38.8823 63.5924 39.4315 62.4615 40.3371 61.6575C41.2427 60.8534 42.4306 60.442 43.6395 60.5139L43.713 60.5182Z" fill="#7196FF"/>
<path d="M88.9942 51.7768L53.1162 49.6452C47.5129 49.3123 42.7007 53.5849 42.3678 59.1882L41.4274 75.0169C41.0945 80.6202 45.367 85.4325 50.9703 85.7654L86.8482 87.8969C92.4512 88.2298 97.2632 83.9573 97.5962 78.354L98.5362 62.5252C98.8692 56.9219 94.5972 52.1097 88.9942 51.7768Z" fill="#7196FF"/>
<path d="M48.9517 66.8095C50.66 66.8095 52.0449 65.4246 52.0449 63.7163C52.0449 62.0079 50.66 60.623 48.9517 60.623C47.2433 60.623 45.8584 62.0079 45.8584 63.7163C45.8584 65.4246 47.2433 66.8095 48.9517 66.8095Z" fill="black"/>
<path d="M91.8929 63.3691L100.936 63.9064C102.126 63.977 103.238 64.5173 104.029 65.4083C104.82 66.2993 105.225 67.4681 105.154 68.6575L104.547 78.8767C104.477 80.0661 103.936 81.1787 103.045 81.9698C102.154 82.7609 100.986 83.1656 99.7959 83.0949L90.7529 82.5577L91.8929 63.3691Z" fill="#7196FF"/>
<path d="M96.6837 65.873L99.2577 66.0259C99.8027 66.0584 100.314 66.3064 100.677 66.7153C101.04 67.1243 101.226 67.6608 101.194 68.2068L100.726 76.0734C100.694 76.6193 100.446 77.13 100.037 77.4931C99.6277 77.8563 99.0917 78.042 98.5457 78.0096L95.9717 77.8567L96.6837 65.873Z" fill="#B8CDFF"/>
<path d="M83.1246 69.0932C84.9546 69.0932 86.4386 67.6094 86.4386 65.779C86.4386 63.9486 84.9546 62.4648 83.1246 62.4648C81.2936 62.4648 79.8096 63.9486 79.8096 65.779C79.8096 67.6094 81.2936 69.0932 83.1246 69.0932Z" fill="black"/>
<path d="M54.6854 58.3703L74.0946 59.5234C74.5196 59.5487 74.9346 59.6573 75.3176 59.8432C75.7006 60.0291 76.0436 60.2886 76.3256 60.6068C76.6086 60.925 76.8256 61.2958 76.9646 61.6979C77.1036 62.1 77.1626 62.5257 77.1376 62.9505L76.6656 70.8906C76.5396 73.0159 75.5736 75.0041 73.9816 76.4176C72.3896 77.8312 70.3016 78.5544 68.1756 78.4281L57.2214 77.7773C56.3042 77.7228 55.4067 77.4882 54.5802 77.0868C53.7537 76.6855 53.0143 76.1253 52.4042 75.4382C51.7942 74.7511 51.3255 73.9506 51.0248 73.0824C50.7242 72.2141 50.5975 71.2952 50.652 70.378L51.1805 61.4821C51.1964 61.0443 51.3009 60.6143 51.4878 60.218C51.6746 59.8217 51.9398 59.4675 52.2674 59.1766C52.595 58.8857 52.9782 58.6643 53.3938 58.5257C53.8094 58.3872 54.2488 58.3343 54.6854 58.3703Z" fill="#B8CDFF"/>
<path d="M56.7596 73.5842H55.3603C55.1731 73.5853 54.9877 73.5468 54.8165 73.4712C54.6452 73.3956 54.4919 73.2845 54.3667 73.1454C54.2414 73.0062 54.1471 72.8421 54.0899 72.6639C54.0326 72.4856 54.0138 72.2973 54.0346 72.1112C54.0334 71.924 54.0719 71.7387 54.1476 71.5674C54.2232 71.3962 54.3343 71.2429 54.4734 71.1176C54.6126 70.9924 54.7767 70.898 54.9549 70.8408C55.1332 70.7836 55.3215 70.7647 55.5076 70.7855H56.9069C57.0941 70.7844 57.2794 70.8229 57.4507 70.8985C57.622 70.9741 57.7752 71.0852 57.9005 71.2243C58.0257 71.3635 58.1201 71.5276 58.1773 71.7058C58.2345 71.8841 58.2534 72.0724 58.2326 72.2585C58.2337 72.4457 58.1952 72.631 58.1196 72.8023C58.044 72.9736 57.9329 73.1269 57.7938 73.2521C57.6546 73.3773 57.4905 73.4717 57.3123 73.5289C57.134 73.5862 56.9457 73.605 56.7596 73.5842Z" fill="#7196FF"/>
<path d="M65.8906 74.1759L63.2396 73.955C63.0516 73.9561 62.8666 73.9176 62.6956 73.842C62.5236 73.7664 62.3706 73.6553 62.2456 73.5162C62.1206 73.377 62.0256 73.2129 61.9686 73.0347C61.9116 72.8564 61.8926 72.6681 61.9136 72.482C61.9226 72.2982 61.9686 72.118 62.0476 71.9518C62.1266 71.7856 62.2376 71.6367 62.3746 71.5135C62.5116 71.3904 62.6716 71.2954 62.8446 71.2341C63.0186 71.1728 63.2026 71.1464 63.3866 71.1563L66.0376 71.3036C66.2216 71.313 66.4016 71.3586 66.5676 71.4378C66.7346 71.517 66.8836 71.6282 67.0066 71.765C67.1296 71.9018 67.2246 72.0616 67.2856 72.2352C67.3466 72.4088 67.3736 72.5928 67.3636 72.7766C67.3286 73.1484 67.1596 73.4949 66.8886 73.7521C66.6186 74.0093 66.2636 74.1598 65.8906 74.1759Z" fill="#7196FF"/>
<path d="M119.73 77.6708L21.9326 81.7034L24.2047 136.805L122.002 132.772L119.73 77.6708Z" fill="url(#paint0_linear_114_745)"/>
<path d="M119.655 77.6739L95.5186 78.6692L97.7906 133.771L121.927 132.775L119.655 77.6739Z" fill="#EB459F"/>
<path d="M67.1852 108.366C70.3149 108.237 72.7471 105.595 72.6181 102.466C72.489 99.3366 69.8476 96.9044 66.7179 97.0334C63.5886 97.1625 61.1564 99.8039 61.2854 102.933C61.4144 106.063 64.0559 108.495 67.1852 108.366Z" fill="#FFBADB"/>
<path d="M79.075 108.906C78.413 108.919 77.7701 109.13 77.2294 109.511C76.6886 109.892 76.2743 110.426 76.0396 111.045C75.8049 111.663 75.7606 112.338 75.9133 112.982C76.0649 113.626 76.4063 114.21 76.8932 114.658C77.38 115.106 77.9906 115.398 78.6442 115.497C79.2988 115.596 79.9673 115.496 80.5651 115.212C81.1619 114.927 81.6604 114.47 81.9962 113.899C82.331 113.329 82.488 112.671 82.4458 112.011C82.4283 111.586 82.327 111.168 82.1489 110.782C81.9699 110.396 81.7163 110.049 81.4032 109.76C81.0901 109.472 80.7235 109.248 80.3242 109.102C79.9248 108.955 79.4997 108.889 79.075 108.906Z" fill="#FFBADB"/>
<path d="M78.0556 84.1824C77.1974 84.2178 76.3871 84.5929 75.8057 85.2251C75.2232 85.8573 74.9155 86.695 74.9509 87.5537C74.9863 88.4124 75.362 89.2218 75.9945 89.804C76.626 90.3863 77.4644 90.6934 78.3226 90.658C79.1809 90.6226 79.9912 90.2475 80.5726 89.6152C81.155 88.983 81.4628 88.1454 81.4274 87.2866C81.392 86.4279 81.0163 85.6184 80.3838 85.0363C79.7523 84.4541 78.9139 84.147 78.0556 84.1824Z" fill="#FFBADB"/>
<path d="M68.2047 133.088C71.3344 132.959 73.7666 130.318 73.6376 127.189C73.5086 124.06 70.8671 121.628 67.7375 121.757C64.6081 121.886 62.1759 124.527 62.3049 127.656C62.4339 130.785 65.0754 133.218 68.2047 133.088Z" fill="#FFBADB"/>
<path d="M66.1618 83.5673C67.3146 83.518 68.4241 83.1187 69.3442 82.4222C70.2632 81.7258 70.9483 80.7655 71.3084 79.6695L60.7119 80.1064C61.1606 81.1691 61.9226 82.0697 62.8963 82.688C63.8701 83.3064 65.0092 83.6131 66.1618 83.5673Z" fill="#FFBADB"/>
<path d="M53.5967 91.6775C55.3848 91.6038 56.7746 90.0944 56.7009 88.3062C56.6272 86.518 55.1178 85.1282 53.3296 85.2019C51.5415 85.2757 50.1516 86.785 50.2253 88.5732C50.299 90.3614 51.8085 91.7513 53.5967 91.6775Z" fill="#FFBADB"/>
<path d="M54.6162 116.403C56.4044 116.329 57.7942 114.819 57.7204 113.031C57.6467 111.243 56.1374 109.853 54.3492 109.927C52.561 110.001 51.1711 111.51 51.2448 113.298C51.3186 115.086 52.828 116.476 54.6162 116.403Z" fill="#FFBADB"/>
<path d="M90.8877 82.5477C92.0397 82.4985 93.1501 82.0991 94.0692 81.4027C94.9893 80.7063 95.6743 79.7459 96.0345 78.65L85.4375 79.0869C85.8867 80.1495 86.6484 81.0502 87.6217 81.6685C88.596 82.2869 89.7346 82.5936 90.8877 82.5477Z" fill="#FFBADB"/>
<path d="M103.047 89.6385C104.836 89.5647 106.226 88.0553 106.152 86.2671C106.078 84.4789 104.569 83.0891 102.78 83.1629C100.992 83.2366 99.6018 84.746 99.6755 86.5341C99.7492 88.3223 101.259 89.7122 103.047 89.6385Z" fill="#FFBADB"/>
<path d="M115.612 81.5282C116.419 81.4982 117.21 81.2962 117.933 80.936C118.655 80.5757 119.292 80.0653 119.802 79.4389L119.729 77.6729L110.162 78.0674C110.611 79.13 111.373 80.0307 112.346 80.649C113.321 81.2674 114.459 81.5741 115.612 81.5282Z" fill="#FFBADB"/>
<path d="M104.067 114.364C105.855 114.29 107.245 112.78 107.172 110.992C107.098 109.204 105.588 107.814 103.8 107.888C102.011 107.962 100.621 109.471 100.695 111.259C100.769 113.047 102.278 114.437 104.067 114.364Z" fill="#FFBADB"/>
<path d="M93.2058 107.099C96.2215 106.253 97.9801 103.123 97.1351 100.107C96.2892 97.0918 93.159 95.3324 90.1433 96.1779C87.1276 97.0234 85.369 100.153 86.214 103.169C87.06 106.185 90.1901 107.944 93.2058 107.099Z" fill="#FFBADB"/>
<path d="M96.8658 130.221C98.9867 127.917 98.8388 124.33 96.5354 122.208C94.231 120.086 90.6431 120.234 88.5222 122.538C86.4004 124.843 86.5483 128.43 88.8526 130.552C91.156 132.674 94.744 132.526 96.8658 130.221Z" fill="#FFBADB"/>
<path d="M22.7998 102.75L22.9424 106.209C23.0953 105.653 23.1709 105.08 23.167 104.504C23.1219 103.906 22.9985 103.316 22.7998 102.75Z" fill="#FFBADB"/>
<path d="M80.0938 133.633C79.275 133.676 78.5006 134.024 77.9231 134.606L82.3383 134.424C81.7139 133.891 80.9146 133.609 80.0938 133.633Z" fill="#FFBADB"/>
<path d="M41.9933 98.053C40.8726 98.0992 39.7909 98.4767 38.8847 99.1377C37.9786 99.7988 37.2888 100.714 36.9027 101.767C36.5165 102.82 36.4513 103.964 36.7152 105.054C36.9792 106.144 37.5604 107.131 38.3855 107.891C39.2106 108.651 40.2425 109.149 41.3506 109.322C42.4588 109.495 43.5934 109.336 44.6111 108.865C45.6288 108.393 46.4838 107.63 47.0679 106.673C47.6522 105.715 47.9393 104.606 47.8931 103.486C47.8312 101.983 47.1747 100.566 46.0683 99.5474C44.9619 98.5286 43.496 97.991 41.9933 98.053Z" fill="#FFBADB"/>
<path d="M104.819 132.613C104.001 132.657 103.226 133.004 102.649 133.586L107.064 133.404C106.439 132.872 105.64 132.589 104.819 132.613Z" fill="#FFBADB"/>
<path d="M30.644 135.672C29.8247 135.715 29.0511 136.063 28.4729 136.645L32.888 136.463C32.2572 135.942 31.4621 135.662 30.644 135.672Z" fill="#FFBADB"/>
<path d="M117.188 119.718C115.812 119.933 114.564 120.647 113.68 121.723C112.798 122.799 112.341 124.162 112.398 125.554C112.456 126.945 113.023 128.267 113.991 129.267C114.96 130.267 116.264 130.874 117.652 130.976C118.451 130.942 119.235 130.746 119.955 130.4C120.677 130.053 121.319 129.563 121.845 128.961L121.535 121.455C120.976 120.872 120.298 120.416 119.549 120.117C118.799 119.817 117.994 119.681 117.188 119.718Z" fill="#FFBADB"/>
<path d="M116.168 94.9944C114.793 95.2096 113.544 95.9235 112.661 96.9998C111.778 98.0761 111.321 99.4398 111.379 100.831C111.436 102.222 112.004 103.543 112.972 104.543C113.941 105.543 115.244 106.152 116.632 106.253C117.439 106.223 118.23 106.021 118.953 105.661C119.675 105.301 120.312 104.79 120.822 104.164L120.515 96.7317C119.956 96.1494 119.279 95.6932 118.53 95.3935C117.78 95.094 116.974 94.9579 116.168 94.9944Z" fill="#FFBADB"/>
<path d="M55.3697 134.652C54.5503 134.696 53.7767 135.043 53.1985 135.625L57.6136 135.443C56.9896 134.911 56.19 134.628 55.3697 134.652Z" fill="#FFBADB"/>
<path d="M41.4373 84.5868C42.5898 84.5376 43.6998 84.1382 44.6193 83.4417C45.5388 82.7453 46.2241 81.785 46.5838 80.689L35.9873 81.126C36.436 82.1886 37.198 83.0893 38.1717 83.7076C39.1455 84.326 40.2847 84.6326 41.4373 84.5868Z" fill="#FFBADB"/>
<path d="M43.0128 122.776C41.8922 122.822 40.8104 123.2 39.9043 123.861C38.9981 124.522 38.3083 125.437 37.9222 126.49C37.5361 127.543 37.4708 128.687 37.7348 129.777C37.9987 130.867 38.58 131.854 39.4051 132.614C40.2302 133.374 41.2621 133.872 42.3702 134.046C43.4783 134.218 44.6129 134.059 45.6307 133.588C46.6483 133.117 47.5033 132.354 48.0875 131.396C48.6717 130.439 48.9589 129.329 48.9126 128.208C48.8507 126.705 48.1943 125.289 47.0878 124.271C45.9814 123.252 44.5155 122.714 43.0128 122.776Z" fill="#FFBADB"/>
<path d="M28.8721 92.6971C30.6602 92.6233 32.05 91.1139 31.9763 89.3257C31.9026 87.5375 30.3932 86.1477 28.605 86.2215C26.8168 86.2952 25.427 87.8045 25.5007 89.5927C25.5744 91.3809 27.0838 92.7708 28.8721 92.6971Z" fill="#FFBADB"/>
<path d="M29.8916 117.422C31.6798 117.348 33.0696 115.839 32.9958 114.051C32.9221 112.263 31.4127 110.873 29.6246 110.947C27.8363 111.02 26.4465 112.53 26.5202 114.318C26.594 116.106 28.1033 117.496 29.8916 117.422Z" fill="#FFBADB"/>
<path d="M23.8203 127.477L23.9629 130.935C24.1158 130.38 24.1914 129.807 24.1875 129.23C24.1424 128.633 24.019 128.043 23.8203 127.477Z" fill="#FFBADB"/>
<path d="M65.789 79.8952L51.8076 80.4717L54.0797 135.573L68.0611 134.997L65.789 79.8952Z" fill="#57F287"/>
<path d="M113.106 77.9441L106.409 78.2202L108.681 133.322L115.378 133.045L113.106 77.9441Z" fill="#29CC7A"/>
<g filter="url(#filter0_dddd_114_745)">
<rect x="107.001" y="132" width="38" height="5" rx="1" fill="#D9D9D9"/>
<rect x="107.001" y="132" width="38" height="5" rx="1" fill="url(#paint1_linear_114_745)"/>
<rect x="108.001" y="127" width="38" height="5" rx="1" fill="#D9D9D9"/>
<rect x="108.001" y="127" width="38" height="5" rx="1" fill="url(#paint2_linear_114_745)"/>
<rect x="108.001" y="122" width="38" height="5" rx="1" fill="#D9D9D9"/>
<rect x="108.001" y="122" width="38" height="5" rx="1" fill="url(#paint3_linear_114_745)"/>
<rect x="106.001" y="117" width="38" height="5" rx="1" fill="#D9D9D9"/>
<rect x="106.001" y="117" width="38" height="5" rx="1" fill="url(#paint4_linear_114_745)"/>
<rect x="107.001" y="112" width="38" height="5" rx="1" fill="#D9D9D9"/>
<rect x="107.001" y="112" width="38" height="5" rx="1" fill="url(#paint5_linear_114_745)"/>
<rect x="106.001" y="107" width="38" height="5" rx="1" fill="#D9D9D9"/>
<rect x="106.001" y="107" width="38" height="5" rx="1" fill="url(#paint6_linear_114_745)"/>
<rect x="106.001" y="102" width="38" height="5" rx="1" fill="#D9D9D9"/>
<rect x="106.001" y="102" width="38" height="5" rx="1" fill="url(#paint7_linear_114_745)"/>
<rect x="107.001" y="97" width="38" height="5" rx="1" fill="#D9D9D9"/>
<rect x="107.001" y="97" width="38" height="5" rx="1" fill="url(#paint8_linear_114_745)"/>
<rect x="107.001" y="92" width="38" height="5" rx="1" fill="#D9D9D9"/>
<rect x="107.001" y="92" width="38" height="5" rx="1" fill="url(#paint9_linear_114_745)"/>
</g>
<g filter="url(#filter1_dddd_114_745)">
<rect x="2.00098" y="132" width="38" height="5" rx="1" fill="#D9D9D9"/>
<rect x="2.00098" y="132" width="38" height="5" rx="1" fill="url(#paint10_linear_114_745)"/>
<rect x="3.00098" y="127" width="38" height="5" rx="1" fill="#D9D9D9"/>
<rect x="3.00098" y="127" width="38" height="5" rx="1" fill="url(#paint11_linear_114_745)"/>
<rect x="2.00098" y="122" width="38" height="5" rx="1" fill="#D9D9D9"/>
<rect x="2.00098" y="122" width="38" height="5" rx="1" fill="url(#paint12_linear_114_745)"/>
<rect x="2.00098" y="117" width="38" height="5" rx="1" fill="#D9D9D9"/>
<rect x="2.00098" y="117" width="38" height="5" rx="1" fill="url(#paint13_linear_114_745)"/>
<rect x="2.00098" y="112" width="38" height="5" rx="1" fill="#D9D9D9"/>
<rect x="2.00098" y="112" width="38" height="5" rx="1" fill="url(#paint14_linear_114_745)"/>
<rect x="4.00098" y="107" width="38" height="5" rx="1" fill="#D9D9D9"/>
<rect x="4.00098" y="107" width="38" height="5" rx="1" fill="url(#paint15_linear_114_745)"/>
</g>
<g filter="url(#filter2_dddd_114_745)">
<rect x="53.001" y="132" width="38" height="5" rx="1" fill="#D9D9D9"/>
<rect x="53.001" y="132" width="38" height="5" rx="1" fill="url(#paint16_linear_114_745)"/>
<rect x="53.001" y="127" width="38" height="5" rx="1" fill="#D9D9D9"/>
<rect x="53.001" y="127" width="38" height="5" rx="1" fill="url(#paint17_linear_114_745)"/>
<rect x="55.001" y="122" width="38" height="5" rx="1" fill="#D9D9D9"/>
<rect x="55.001" y="122" width="38" height="5" rx="1" fill="url(#paint18_linear_114_745)"/>
</g>
<g clip-path="url(#clip1_114_745)">
<g filter="url(#filter3_d_114_745)">
<path fill-rule="evenodd" clip-rule="evenodd" d="M36.6021 15.2591C34.8947 13.4542 32.3543 12.6974 29.9376 13.2735L22.9669 14.9354C20.5502 15.5117 18.6245 17.3334 17.9152 19.7144L15.8691 26.582C15.1597 28.9632 15.7745 31.5416 17.4818 33.3465L22.4065 38.5523C24.1138 40.3572 26.6542 41.1141 29.071 40.5378L36.0416 38.8759C38.4584 38.2997 40.384 36.4781 41.0934 34.0969L43.1395 27.2293C43.8488 24.8483 43.234 22.2697 41.5267 20.4648L36.6021 15.2591ZM51.2856 25.2871C51.9949 22.9062 51.3801 20.3275 49.6728 18.5227L38.9932 7.23333C37.2858 5.4285 34.7454 4.67164 32.3286 5.24781L17.212 8.85188C14.7953 9.42808 12.8695 11.2498 12.1602 13.6307L7.72309 28.5242C7.01374 30.9052 7.62852 33.4838 9.33587 35.2888L20.0154 46.578C21.7228 48.3828 24.2632 49.1397 26.68 48.5635L41.7966 44.9596C44.2134 44.3833 46.1391 42.5616 46.8484 40.1806L51.2856 25.2871Z" fill="#505CDC"/>
</g>
<g filter="url(#filter4_d_114_745)">
<mask id="mask0_114_745" style="mask-type:luminance" maskUnits="userSpaceOnUse" x="18" y="14" width="24" height="25">
<path d="M41.963 20.1654L23.6865 14.7205L18.2416 32.9969L36.518 38.4419L41.963 20.1654Z" fill="white"/>
</mask>
<g mask="url(#mask0_114_745)">
<path d="M33.2764 24.8621L32.9066 19.5312C32.8275 18.3921 31.3782 17.9603 30.6886 18.8704L27.4618 23.1298L22.1308 23.4996C20.9917 23.5786 20.56 25.0279 21.4701 25.7174L25.7295 28.9444L26.0992 34.2753C26.1783 35.4143 27.6276 35.8461 28.3171 34.9361L31.5441 30.6767L36.8749 30.3069C38.0141 30.2279 38.4459 28.7786 37.5357 28.089L33.2764 24.8621Z" fill="#505CDC"/>
</g>
</g>
</g>
<g filter="url(#filter5_d_114_745)">
<path fill-rule="evenodd" clip-rule="evenodd" d="M29.9293 15.3541C27.9933 13.797 25.3738 13.391 23.0573 14.289L16.3758 16.8792C14.0594 17.7773 12.398 19.843 12.0175 22.298L10.9199 29.3794C10.5394 31.8347 11.4976 34.3062 13.4335 35.8634L19.0175 40.3546C20.9535 41.9117 23.573 42.3177 25.8895 41.4196L32.571 38.8294C34.8875 37.9313 36.5488 35.8658 36.9294 33.4106L38.0269 26.3291C38.4074 23.8741 37.4492 21.4024 35.5133 19.8453L29.9293 15.3541ZM45.8351 23.3021C46.2156 20.8471 45.2574 18.3754 43.3214 16.8183L31.2119 7.07855C29.2759 5.52146 26.6564 5.11546 24.3399 6.01348L9.85035 11.6307C7.53386 12.5288 5.87244 14.5944 5.49195 17.0494L3.11181 32.4065C2.7313 34.8616 3.68948 37.3332 5.62545 38.8904L17.7349 48.63C19.6709 50.1872 22.2904 50.5932 24.6069 49.6951L39.0965 44.078C41.413 43.1799 43.0744 41.1142 43.4549 38.6591L45.8351 23.3021Z" fill="#505CDC"/>
</g>
<g filter="url(#filter6_d_114_745)">
<mask id="mask1_114_745" style="mask-type:luminance" maskUnits="userSpaceOnUse" x="14" y="16" width="22" height="23">
<path d="M35.9049 19.4896L17.0596 16.5688L14.1388 35.4141L32.9841 38.3349L35.9049 19.4896Z" fill="white"/>
</mask>
<g mask="url(#mask1_114_745)">
<path d="M27.9341 25.319L26.846 20.0873C26.6135 18.9693 25.1191 18.7377 24.5591 19.7328L21.9385 24.3897L16.7067 25.4778C15.5888 25.7103 15.3572 27.2047 16.3522 27.7647L21.0092 30.3853L22.0972 35.6171C22.3297 36.735 23.8242 36.9666 24.3842 35.9716L27.0048 31.3146L32.2366 30.2265C33.3545 29.9941 33.5861 28.4997 32.591 27.9396L27.9341 25.319Z" fill="#505CDC"/>
</g>
</g>
<g filter="url(#filter7_d_114_745)">
<rect x="27.8984" y="39.8516" width="9" height="17.4323" rx="4" transform="rotate(-9.58087 27.8984 39.8516)" fill="#5865F2"/>
</g>
</g>
<defs>
<filter id="filter0_dddd_114_745" x="101.001" y="87" width="50" height="55" filterUnits="userSpaceOnUse" color-interpolation-filters="sRGB">
<feFlood flood-opacity="0" result="BackgroundImageFix"/>
<feColorMatrix in="SourceAlpha" type="matrix" values="0 0 0 0 0 0 0 0 0 0 0 0 0 0 0 0 0 0 127 0" result="hardAlpha"/>
<feOffset dy="1"/>
<feGaussianBlur stdDeviation="2"/>
<feComposite in2="hardAlpha" operator="out"/>
<feColorMatrix type="matrix" values="0 0 0 0 0 0 0 0 0 0 0 0 0 0 0 0 0 0 0.25 0"/>
<feBlend mode="normal" in2="BackgroundImageFix" result="effect1_dropShadow_114_745"/>
<feColorMatrix in="SourceAlpha" type="matrix" values="0 0 0 0 0 0 0 0 0 0 0 0 0 0 0 0 0 0 127 0" result="hardAlpha"/>
<feOffset dy="-1"/>
<feGaussianBlur stdDeviation="2"/>
<feComposite in2="hardAlpha" operator="out"/>
<feColorMatrix type="matrix" values="0 0 0 0 0 0 0 0 0 0 0 0 0 0 0 0 0 0 0.25 0"/>
<feBlend mode="normal" in2="effect1_dropShadow_114_745" result="effect2_dropShadow_114_745"/>
<feColorMatrix in="SourceAlpha" type="matrix" values="0 0 0 0 0 0 0 0 0 0 0 0 0 0 0 0 0 0 127 0" result="hardAlpha"/>
<feOffset dx="1"/>
<feGaussianBlur stdDeviation="2"/>
<feComposite in2="hardAlpha" operator="out"/>
<feColorMatrix type="matrix" values="0 0 0 0 0 0 0 0 0 0 0 0 0 0 0 0 0 0 0.25 0"/>
<feBlend mode="normal" in2="effect2_dropShadow_114_745" result="effect3_dropShadow_114_745"/>
<feColorMatrix in="SourceAlpha" type="matrix" values="0 0 0 0 0 0 0 0 0 0 0 0 0 0 0 0 0 0 127 0" result="hardAlpha"/>
<feOffset dx="-1"/>
<feGaussianBlur stdDeviation="2"/>
<feComposite in2="hardAlpha" operator="out"/>
<feColorMatrix type="matrix" values="0 0 0 0 0 0 0 0 0 0 0 0 0 0 0 0 0 0 0.25 0"/>
<feBlend mode="normal" in2="effect3_dropShadow_114_745" result="effect4_dropShadow_114_745"/>
<feBlend mode="normal" in="SourceGraphic" in2="effect4_dropShadow_114_745" result="shape"/>
</filter>
<filter id="filter1_dddd_114_745" x="-2.99902" y="102" width="50" height="40" filterUnits="userSpaceOnUse" color-interpolation-filters="sRGB">
<feFlood flood-opacity="0" result="BackgroundImageFix"/>
<feColorMatrix in="SourceAlpha" type="matrix" values="0 0 0 0 0 0 0 0 0 0 0 0 0 0 0 0 0 0 127 0" result="hardAlpha"/>
<feOffset dy="1"/>
<feGaussianBlur stdDeviation="2"/>
<feComposite in2="hardAlpha" operator="out"/>
<feColorMatrix type="matrix" values="0 0 0 0 0 0 0 0 0 0 0 0 0 0 0 0 0 0 0.25 0"/>
<feBlend mode="normal" in2="BackgroundImageFix" result="effect1_dropShadow_114_745"/>
<feColorMatrix in="SourceAlpha" type="matrix" values="0 0 0 0 0 0 0 0 0 0 0 0 0 0 0 0 0 0 127 0" result="hardAlpha"/>
<feOffset dy="-1"/>
<feGaussianBlur stdDeviation="2"/>
<feComposite in2="hardAlpha" operator="out"/>
<feColorMatrix type="matrix" values="0 0 0 0 0 0 0 0 0 0 0 0 0 0 0 0 0 0 0.25 0"/>
<feBlend mode="normal" in2="effect1_dropShadow_114_745" result="effect2_dropShadow_114_745"/>
<feColorMatrix in="SourceAlpha" type="matrix" values="0 0 0 0 0 0 0 0 0 0 0 0 0 0 0 0 0 0 127 0" result="hardAlpha"/>
<feOffset dx="1"/>
<feGaussianBlur stdDeviation="2"/>
<feComposite in2="hardAlpha" operator="out"/>
<feColorMatrix type="matrix" values="0 0 0 0 0 0 0 0 0 0 0 0 0 0 0 0 0 0 0.25 0"/>
<feBlend mode="normal" in2="effect2_dropShadow_114_745" result="effect3_dropShadow_114_745"/>
<feColorMatrix in="SourceAlpha" type="matrix" values="0 0 0 0 0 0 0 0 0 0 0 0 0 0 0 0 0 0 127 0" result="hardAlpha"/>
<feOffset dx="-1"/>
<feGaussianBlur stdDeviation="2"/>
<feComposite in2="hardAlpha" operator="out"/>
<feColorMatrix type="matrix" values="0 0 0 0 0 0 0 0 0 0 0 0 0 0 0 0 0 0 0.25 0"/>
<feBlend mode="normal" in2="effect3_dropShadow_114_745" result="effect4_dropShadow_114_745"/>
<feBlend mode="normal" in="SourceGraphic" in2="effect4_dropShadow_114_745" result="shape"/>
</filter>
<filter id="filter2_dddd_114_745" x="48.001" y="117" width="50" height="25" filterUnits="userSpaceOnUse" color-interpolation-filters="sRGB">
<feFlood flood-opacity="0" result="BackgroundImageFix"/>
<feColorMatrix in="SourceAlpha" type="matrix" values="0 0 0 0 0 0 0 0 0 0 0 0 0 0 0 0 0 0 127 0" result="hardAlpha"/>
<feOffset dy="1"/>
<feGaussianBlur stdDeviation="2"/>
<feComposite in2="hardAlpha" operator="out"/>
<feColorMatrix type="matrix" values="0 0 0 0 0 0 0 0 0 0 0 0 0 0 0 0 0 0 0.25 0"/>
<feBlend mode="normal" in2="BackgroundImageFix" result="effect1_dropShadow_114_745"/>
<feColorMatrix in="SourceAlpha" type="matrix" values="0 0 0 0 0 0 0 0 0 0 0 0 0 0 0 0 0 0 127 0" result="hardAlpha"/>
<feOffset dy="-1"/>
<feGaussianBlur stdDeviation="2"/>
<feComposite in2="hardAlpha" operator="out"/>
<feColorMatrix type="matrix" values="0 0 0 0 0 0 0 0 0 0 0 0 0 0 0 0 0 0 0.25 0"/>
<feBlend mode="normal" in2="effect1_dropShadow_114_745" result="effect2_dropShadow_114_745"/>
<feColorMatrix in="SourceAlpha" type="matrix" values="0 0 0 0 0 0 0 0 0 0 0 0 0 0 0 0 0 0 127 0" result="hardAlpha"/>
<feOffset dx="1"/>
<feGaussianBlur stdDeviation="2"/>
<feComposite in2="hardAlpha" operator="out"/>
<feColorMatrix type="matrix" values="0 0 0 0 0 0 0 0 0 0 0 0 0 0 0 0 0 0 0.25 0"/>
<feBlend mode="normal" in2="effect2_dropShadow_114_745" result="effect3_dropShadow_114_745"/>
<feColorMatrix in="SourceAlpha" type="matrix" values="0 0 0 0 0 0 0 0 0 0 0 0 0 0 0 0 0 0 127 0" result="hardAlpha"/>
<feOffset dx="-1"/>
<feGaussianBlur stdDeviation="2"/>
<feComposite in2="hardAlpha" operator="out"/>
<feColorMatrix type="matrix" values="0 0 0 0 0 0 0 0 0 0 0 0 0 0 0 0 0 0 0.25 0"/>
<feBlend mode="normal" in2="effect3_dropShadow_114_745" result="effect4_dropShadow_114_745"/>
<feBlend mode="normal" in="SourceGraphic" in2="effect4_dropShadow_114_745" result="shape"/>
</filter>
<filter id="filter3_d_114_745" x="5.43359" y="3.05811" width="52.1416" height="51.6951" filterUnits="userSpaceOnUse" color-interpolation-filters="sRGB">
<feFlood flood-opacity="0" result="BackgroundImageFix"/>
<feColorMatrix in="SourceAlpha" type="matrix" values="0 0 0 0 0 0 0 0 0 0 0 0 0 0 0 0 0 0 127 0" result="hardAlpha"/>
<feOffset dx="2" dy="2"/>
<feGaussianBlur stdDeviation="2"/>
<feComposite in2="hardAlpha" operator="out"/>
<feColorMatrix type="matrix" values="0 0 0 0 0 0 0 0 0 0 0 0 0 0 0 0 0 0 0.25 0"/>
<feBlend mode="normal" in2="BackgroundImageFix" result="effect1_dropShadow_114_745"/>
<feBlend mode="normal" in="SourceGraphic" in2="effect1_dropShadow_114_745" result="shape"/>
</filter>
<filter id="filter4_d_114_745" x="19.9785" y="17.3792" width="25.0488" height="25.0481" filterUnits="userSpaceOnUse" color-interpolation-filters="sRGB">
<feFlood flood-opacity="0" result="BackgroundImageFix"/>
<feColorMatrix in="SourceAlpha" type="matrix" values="0 0 0 0 0 0 0 0 0 0 0 0 0 0 0 0 0 0 127 0" result="hardAlpha"/>
<feOffset dx="3" dy="3"/>
<feGaussianBlur stdDeviation="2"/>
<feComposite in2="hardAlpha" operator="out"/>
<feColorMatrix type="matrix" values="0 0 0 0 0 0 0 0 0 0 0 0 0 0 0 0 0 0 0.25 0"/>
<feBlend mode="normal" in2="BackgroundImageFix" result="effect1_dropShadow_114_745"/>
<feBlend mode="normal" in="SourceGraphic" in2="effect1_dropShadow_114_745" result="shape"/>
</filter>
<filter id="filter5_d_114_745" x="1.0293" y="3.54321" width="50.8877" height="52.6221" filterUnits="userSpaceOnUse" color-interpolation-filters="sRGB">
<feFlood flood-opacity="0" result="BackgroundImageFix"/>
<feColorMatrix in="SourceAlpha" type="matrix" values="0 0 0 0 0 0 0 0 0 0 0 0 0 0 0 0 0 0 127 0" result="hardAlpha"/>
<feOffset dx="2" dy="2"/>
<feGaussianBlur stdDeviation="2"/>
<feComposite in2="hardAlpha" operator="out"/>
<feColorMatrix type="matrix" values="0 0 0 0 0 0 0 0 0 0 0 0 0 0 0 0 0 0 0.25 0"/>
<feBlend mode="normal" in2="BackgroundImageFix" result="effect1_dropShadow_114_745"/>
<feBlend mode="normal" in="SourceGraphic" in2="effect1_dropShadow_114_745" result="shape"/>
</filter>
<filter id="filter6_d_114_745" x="14.7217" y="18.1025" width="25.5" height="25.4993" filterUnits="userSpaceOnUse" color-interpolation-filters="sRGB">
<feFlood flood-opacity="0" result="BackgroundImageFix"/>
<feColorMatrix in="SourceAlpha" type="matrix" values="0 0 0 0 0 0 0 0 0 0 0 0 0 0 0 0 0 0 127 0" result="hardAlpha"/>
<feOffset dx="3" dy="3"/>
<feGaussianBlur stdDeviation="2"/>
<feComposite in2="hardAlpha" operator="out"/>
<feColorMatrix type="matrix" values="0 0 0 0 0 0 0 0 0 0 0 0 0 0 0 0 0 0 0.25 0"/>
<feBlend mode="normal" in2="BackgroundImageFix" result="effect1_dropShadow_114_745"/>
<feBlend mode="normal" in="SourceGraphic" in2="effect1_dropShadow_114_745" result="shape"/>
</filter>
<filter id="filter7_d_114_745" x="25.5078" y="33.9629" width="13.5576" height="22.4685" filterUnits="userSpaceOnUse" color-interpolation-filters="sRGB">
<feFlood flood-opacity="0" result="BackgroundImageFix"/>
<feColorMatrix in="SourceAlpha" type="matrix" values="0 0 0 0 0 0 0 0 0 0 0 0 0 0 0 0 0 0 127 0" result="hardAlpha"/>
<feOffset dx="-2" dy="-4"/>
<feGaussianBlur stdDeviation="0.5"/>
<feComposite in2="hardAlpha" operator="out"/>
<feColorMatrix type="matrix" values="0 0 0 0 0 0 0 0 0 0 0 0 0 0 0 0 0 0 0.1 0"/>
<feBlend mode="normal" in2="BackgroundImageFix" result="effect1_dropShadow_114_745"/>
<feBlend mode="normal" in="SourceGraphic" in2="effect1_dropShadow_114_745" result="shape"/>
</filter>
<linearGradient id="paint0_linear_114_745" x1="73.0842" y1="134.694" x2="70.8935" y2="81.5641" gradientUnits="userSpaceOnUse">
<stop stop-color="#EB459F"/>
<stop offset="1" stop-color="#FF78B9"/>
</linearGradient>
<linearGradient id="paint1_linear_114_745" x1="107.001" y1="132" x2="108.294" y2="141.83" gradientUnits="userSpaceOnUse">
<stop stop-color="#3442D7"/>
<stop offset="1" stop-color="#4553E8"/>
</linearGradient>
<linearGradient id="paint2_linear_114_745" x1="108.001" y1="127" x2="109.294" y2="136.83" gradientUnits="userSpaceOnUse">
<stop stop-color="#3442D7"/>
<stop offset="1" stop-color="#4553E8"/>
</linearGradient>
<linearGradient id="paint3_linear_114_745" x1="108.001" y1="122" x2="109.294" y2="131.83" gradientUnits="userSpaceOnUse">
<stop stop-color="#3442D7"/>
<stop offset="1" stop-color="#4553E8"/>
</linearGradient>
<linearGradient id="paint4_linear_114_745" x1="106.001" y1="117" x2="107.294" y2="126.83" gradientUnits="userSpaceOnUse">
<stop stop-color="#3442D7"/>
<stop offset="1" stop-color="#4553E8"/>
</linearGradient>
<linearGradient id="paint5_linear_114_745" x1="107.001" y1="112" x2="108.294" y2="121.83" gradientUnits="userSpaceOnUse">
<stop stop-color="#3442D7"/>
<stop offset="1" stop-color="#4553E8"/>
</linearGradient>
<linearGradient id="paint6_linear_114_745" x1="106.001" y1="107" x2="107.294" y2="116.83" gradientUnits="userSpaceOnUse">
<stop stop-color="#3442D7"/>
<stop offset="1" stop-color="#4553E8"/>
</linearGradient>
<linearGradient id="paint7_linear_114_745" x1="106.001" y1="102" x2="107.294" y2="111.83" gradientUnits="userSpaceOnUse">
<stop stop-color="#3442D7"/>
<stop offset="1" stop-color="#4553E8"/>
</linearGradient>
<linearGradient id="paint8_linear_114_745" x1="107.001" y1="97" x2="108.294" y2="106.83" gradientUnits="userSpaceOnUse">
<stop stop-color="#3442D7"/>
<stop offset="1" stop-color="#4553E8"/>
</linearGradient>
<linearGradient id="paint9_linear_114_745" x1="107.001" y1="92" x2="108.294" y2="101.83" gradientUnits="userSpaceOnUse">
<stop stop-color="#3442D7"/>
<stop offset="1" stop-color="#4553E8"/>
</linearGradient>
<linearGradient id="paint10_linear_114_745" x1="2.00098" y1="132" x2="3.29437" y2="141.83" gradientUnits="userSpaceOnUse">
<stop stop-color="#3442D7"/>
<stop offset="1" stop-color="#4553E8"/>
</linearGradient>
<linearGradient id="paint11_linear_114_745" x1="3.00098" y1="127" x2="4.29437" y2="136.83" gradientUnits="userSpaceOnUse">
<stop stop-color="#3442D7"/>
<stop offset="1" stop-color="#4553E8"/>
</linearGradient>
<linearGradient id="paint12_linear_114_745" x1="2.00098" y1="122" x2="3.29437" y2="131.83" gradientUnits="userSpaceOnUse">
<stop stop-color="#3442D7"/>
<stop offset="1" stop-color="#4553E8"/>
</linearGradient>
<linearGradient id="paint13_linear_114_745" x1="2.00098" y1="117" x2="3.29437" y2="126.83" gradientUnits="userSpaceOnUse">
<stop stop-color="#3442D7"/>
<stop offset="1" stop-color="#4553E8"/>
</linearGradient>
<linearGradient id="paint14_linear_114_745" x1="2.00098" y1="112" x2="3.29437" y2="121.83" gradientUnits="userSpaceOnUse">
<stop stop-color="#3442D7"/>
<stop offset="1" stop-color="#4553E8"/>
</linearGradient>
<linearGradient id="paint15_linear_114_745" x1="4.00098" y1="107" x2="5.29437" y2="116.83" gradientUnits="userSpaceOnUse">
<stop stop-color="#3442D7"/>
<stop offset="1" stop-color="#4553E8"/>
</linearGradient>
<linearGradient id="paint16_linear_114_745" x1="53.001" y1="132" x2="54.2944" y2="141.83" gradientUnits="userSpaceOnUse">
<stop stop-color="#3442D7"/>
<stop offset="1" stop-color="#4553E8"/>
</linearGradient>
<linearGradient id="paint17_linear_114_745" x1="53.001" y1="127" x2="54.2944" y2="136.83" gradientUnits="userSpaceOnUse">
<stop stop-color="#3442D7"/>
<stop offset="1" stop-color="#4553E8"/>
</linearGradient>
<linearGradient id="paint18_linear_114_745" x1="55.001" y1="122" x2="56.2944" y2="131.83" gradientUnits="userSpaceOnUse">
<stop stop-color="#3442D7"/>
<stop offset="1" stop-color="#4553E8"/>
</linearGradient>
<clipPath id="clip0_114_745">
<rect width="152.52" height="137" fill="white"/>
</clipPath>
<clipPath id="clip1_114_745">
<rect width="49.265" height="49.265" fill="white" transform="translate(12.5391 -3.52539) rotate(16.59)"/>
</clipPath>
</defs>
</svg>
