<svg width="187" height="187" viewBox="0 0 187 187" fill="none" xmlns="http://www.w3.org/2000/svg">
<g clip-path="url(#clip0_136_3)">
<path fill-rule="evenodd" clip-rule="evenodd" d="M93.2014 34.4915L41.7391 64.2032V123.627L93.2014 153.338L144.664 123.627V64.2032L93.2014 34.4915ZM173.024 47.8295L93.2014 1.7439L13.3789 47.8295V140L93.2014 186.086L173.024 140V47.8295Z" fill="white"/>
<path d="M106.759 80.3577L98.3727 57.9977C96.5807 53.2198 89.8225 53.2198 88.0305 57.9977L79.6447 80.3577L57.2847 88.7437C52.5067 90.5355 52.5067 97.2939 57.2847 99.0857L79.6447 107.472L88.0305 129.832C89.8225 134.61 96.5807 134.61 98.3727 129.832L106.759 107.472L129.119 99.0857C133.896 97.2939 133.896 90.5355 129.119 88.7437L106.759 80.3577Z" fill="white"/>
</g>
<defs>
<clipPath id="clip0_136_3">
<rect width="160.82" height="187" fill="white" transform="translate(13.0908)"/>
</clipPath>
</defs>
</svg>
