<svg width="531" height="535" viewBox="0 0 531 535" fill="none" xmlns="http://www.w3.org/2000/svg">
<rect y="0.552002" width="531" height="534.448" rx="265.5" fill="black" fill-opacity="0.3"/>
<path d="M378.065 162.964C356.76 152.959 334.293 145.892 311.206 141.922C308.03 147.719 305.163 153.674 302.606 159.788C278.047 155.976 253.024 155.976 228.387 159.788C225.83 153.674 222.964 147.719 219.788 141.922C196.7 145.972 174.156 153.039 152.851 163.043C110.55 227.201 99.0842 289.771 104.817 351.467C129.609 370.206 157.344 384.499 186.784 393.63C193.447 384.499 199.335 374.732 204.37 364.568C194.764 360.916 185.544 356.39 176.712 351.07C179.037 349.323 181.283 347.576 183.53 345.829C235.437 370.841 295.556 370.841 347.463 345.829C349.71 347.656 351.957 349.482 354.281 351.07C345.449 356.39 336.152 360.916 326.546 364.648C331.581 374.811 337.469 384.499 344.132 393.63C373.649 384.499 401.385 370.285 426.176 351.467C432.916 279.925 414.71 217.99 377.988 162.964H378.065ZM211.73 313.512C195.771 313.512 182.523 298.664 182.523 280.401C182.523 262.138 195.228 247.131 211.653 247.131C228.077 247.131 241.17 262.138 240.86 280.401C240.55 298.664 228 313.512 211.73 313.512ZM319.418 313.512C303.381 313.512 290.288 298.664 290.288 280.401C290.288 262.138 302.994 247.131 319.418 247.131C335.842 247.131 348.858 262.138 348.548 280.401C348.238 298.664 335.688 313.512 319.418 313.512Z" fill="white" fill-opacity="0.2"/>
</svg>
